<svg _ngcontent-glv-c4="" id="Layer_1" data-name="Layer 1" xmlns="http://www.w3.org/2000/svg" viewBox="0 0 490 80" class="is-current"><defs _ngcontent-glv-c4=""><style _ngcontent-glv-c4="">.cls-1{fill:#009ade;}.cls-2{fill:#003764;}.cls-3{fill:none;stroke:#003764;stroke-miterlimit:10;stroke-width:0.91px;}</style></defs><polygon _ngcontent-glv-c4="" points="11.09 54.17 11.09 36.91 2.43 36.91 2.43 62.81 28.35 62.81 28.35 54.17 11.09 54.17" class="cls-1"></polygon><polygon _ngcontent-glv-c4="" points="45.61 19.63 2.44 19.63 2.44 32.58 11.07 32.58 11.07 28.3 36.98 28.3 36.98 54.17 32.66 54.17 32.66 62.81 45.61 62.81 45.61 19.63" class="cls-2"></polygon><path _ngcontent-glv-c4="" d="M54.31,19.49H67.64V51.65H86.78V62.74H54.31Z" class="cls-2"></path><path _ngcontent-glv-c4="" d="M95.29,19.44h33.48v11.1H108.63v5.4h17.28V46.25H108.63V62.74H95.29Z" class="cls-2"></path><path _ngcontent-glv-c4="" d="M148.49,39.79,134.3,19.62h15.58l6.52,11.72,6.4-11.72h14.73L163.71,39.91,179.1,62.74h-16l-7.37-12.86-7.6,12.86H132.91Z" class="cls-1"></path><path _ngcontent-glv-c4="" d="M204,19.66h6l14.82,37.57,14.77-37.57h6V62.51H241.5v-37h-.12l-14.65,37h-3.84l-14.7-37h-.12v37H204Z" class="cls-1"></path><path _ngcontent-glv-c4="" d="M255.6,48.05c0,5.52,3,12.18,10.21,12.18,5.52,0,8.52-3.18,9.72-7.92h3.78c-1.62,7-5.64,11.1-13.5,11.1-9.85,0-14-7.57-14-16.39,0-8.16,4.14-16.38,14-16.38s13.92,8.7,13.62,17.41Zm20-3.19c-.18-5.7-3.78-11-9.84-11-6.25,0-9.55,5.4-10.21,11Z" class="cls-1"></path><path _ngcontent-glv-c4="" d="M284.47,31.54h3.78v5.34h.12c1.44-3.72,5.52-6.24,9.9-6.24,8.71,0,11.35,4.56,11.35,11.94V62.51h-3.78V43.18c0-5.28-1.74-9.36-7.87-9.36s-9.54,4.56-9.72,10.62V62.51h-3.78Z" class="cls-1"></path><path _ngcontent-glv-c4="" d="M322.76,31.54h6.3v3.18h-6.3V55.61c0,2.46.36,3.9,3.06,4.08a29.32,29.32,0,0,0,3.24-.18v3.24c-1.14,0-2.22.12-3.36.12-5,0-6.78-1.68-6.72-7V34.72h-5.4V31.54H319v-9.3h3.78Z" class="cls-1"></path><path _ngcontent-glv-c4="" d="M362.25,47c0,8.89-5.22,16.39-14.64,16.39S333,55.91,333,47s5.22-16.38,14.64-16.38S362.25,38.14,362.25,47Zm-25.5,0c0,6.55,3.66,13.21,10.86,13.21S358.47,53.57,358.47,47s-3.66-13.2-10.86-13.2S336.75,40.48,336.75,47Z" class="cls-1"></path><path _ngcontent-glv-c4="" d="M367.9,31.54h3.48V38.8h.12a11.37,11.37,0,0,1,11.7-7.68V34.9c-6.84-.3-11.52,4.62-11.52,11.1V62.51H367.9Z" class="cls-1"></path><path _ngcontent-glv-c4="" d="M405.34,40.6c-.18-4.68-3.78-6.78-8.1-6.78-3.36,0-7.32,1.32-7.32,5.34,0,3.3,3.78,4.56,6.42,5.22l5,1.14c4.32.66,8.82,3.19,8.82,8.59,0,6.72-6.66,9.3-12.42,9.3-7.26,0-12.06-3.3-12.72-10.92h3.78c.3,5.1,4.08,7.74,9.12,7.74,3.6,0,8.46-1.56,8.46-5.88,0-3.61-3.36-4.81-6.78-5.64l-4.86-1.09c-4.92-1.26-8.64-3.06-8.64-8.28,0-6.3,6.18-8.7,11.64-8.7,6.24,0,11,3.24,11.34,10Z" class="cls-1"></path><path _ngcontent-glv-c4="" d="M415.61,19.66h3.78V36.88h.12c1.44-3.72,5.52-6.24,9.9-6.24,8.7,0,11.34,4.56,11.34,11.94V62.51H437V43.18c0-5.28-1.74-9.36-7.86-9.36s-9.54,4.56-9.72,10.62V62.51h-3.78Z" class="cls-1"></path><path _ngcontent-glv-c4="" d="M448,19.66h3.78v6.06H448Zm0,11.88h3.78v31H448Z" class="cls-1"></path><path _ngcontent-glv-c4="" d="M459,31.54h3.48v5.88h.12c1.74-4.26,6-6.78,11-6.78,9.42,0,13.93,7.56,13.93,16.38s-4.51,16.39-13.93,16.39c-4.56,0-9.12-2.28-10.74-6.78h-.12V74H459Zm14.64,2.28c-8.4,0-10.86,6.18-10.86,13.2,0,6.42,2.88,13.21,10.86,13.21,7.2,0,10.15-6.79,10.15-13.21S480.84,33.82,473.64,33.82Z" class="cls-1"></path><line _ngcontent-glv-c4="" x1="190.71" y1="75.48" x2="190.71" y2="3.49" class="cls-3"></line><polygon _ngcontent-glv-c4="" points="11.09 54.17 11.09 36.91 2.43 36.91 2.43 62.81 28.35 62.81 28.35 54.17 11.09 54.17" class="cls-1"></polygon><polygon _ngcontent-glv-c4="" points="45.61 19.63 2.44 19.63 2.44 32.58 11.07 32.58 11.07 28.3 36.98 28.3 36.98 54.17 32.66 54.17 32.66 62.81 45.61 62.81 45.61 19.63" class="cls-2"></polygon><path _ngcontent-glv-c4="" d="M54.31,19.49H67.64V51.65H86.78V62.74H54.31Z" class="cls-2"></path><path _ngcontent-glv-c4="" d="M95.29,19.44h33.48v11.1H108.63v5.4h17.28V46.25H108.63V62.74H95.29Z" class="cls-2"></path><path _ngcontent-glv-c4="" d="M148.49,39.79,134.3,19.62h15.58l6.52,11.72,6.4-11.72h14.73L163.71,39.91,179.1,62.74h-16l-7.37-12.86-7.6,12.86H132.91Z" class="cls-1"></path><path _ngcontent-glv-c4="" d="M204,19.66h6l14.82,37.57,14.77-37.57h6V62.51H241.5v-37h-.12l-14.65,37h-3.84l-14.7-37h-.12v37H204Z" class="cls-1"></path><path _ngcontent-glv-c4="" d="M255.6,48.05c0,5.52,3,12.18,10.21,12.18,5.52,0,8.52-3.18,9.72-7.92h3.78c-1.62,7-5.64,11.1-13.5,11.1-9.85,0-14-7.57-14-16.39,0-8.16,4.14-16.38,14-16.38s13.92,8.7,13.62,17.41Zm20-3.19c-.18-5.7-3.78-11-9.84-11-6.25,0-9.55,5.4-10.21,11Z" class="cls-1"></path><path _ngcontent-glv-c4="" d="M284.47,31.54h3.78v5.34h.12c1.44-3.72,5.52-6.24,9.9-6.24,8.71,0,11.35,4.56,11.35,11.94V62.51h-3.78V43.18c0-5.28-1.74-9.36-7.87-9.36s-9.54,4.56-9.72,10.62V62.51h-3.78Z" class="cls-1"></path><path _ngcontent-glv-c4="" d="M322.76,31.54h6.3v3.18h-6.3V55.61c0,2.46.36,3.9,3.06,4.08a29.32,29.32,0,0,0,3.24-.18v3.24c-1.14,0-2.22.12-3.36.12-5,0-6.78-1.68-6.72-7V34.72h-5.4V31.54H319v-9.3h3.78Z" class="cls-1"></path><path _ngcontent-glv-c4="" d="M362.25,47c0,8.89-5.22,16.39-14.64,16.39S333,55.91,333,47s5.22-16.38,14.64-16.38S362.25,38.14,362.25,47Zm-25.5,0c0,6.55,3.66,13.21,10.86,13.21S358.47,53.57,358.47,47s-3.66-13.2-10.86-13.2S336.75,40.48,336.75,47Z" class="cls-1"></path><path _ngcontent-glv-c4="" d="M367.9,31.54h3.48V38.8h.12a11.37,11.37,0,0,1,11.7-7.68V34.9c-6.84-.3-11.52,4.62-11.52,11.1V62.51H367.9Z" class="cls-1"></path><path _ngcontent-glv-c4="" d="M405.34,40.6c-.18-4.68-3.78-6.78-8.1-6.78-3.36,0-7.32,1.32-7.32,5.34,0,3.3,3.78,4.56,6.42,5.22l5,1.14c4.32.66,8.82,3.19,8.82,8.59,0,6.72-6.66,9.3-12.42,9.3-7.26,0-12.06-3.3-12.72-10.92h3.78c.3,5.1,4.08,7.74,9.12,7.74,3.6,0,8.46-1.56,8.46-5.88,0-3.61-3.36-4.81-6.78-5.64l-4.86-1.09c-4.92-1.26-8.64-3.06-8.64-8.28,0-6.3,6.18-8.7,11.64-8.7,6.24,0,11,3.24,11.34,10Z" class="cls-1"></path><path _ngcontent-glv-c4="" d="M415.61,19.66h3.78V36.88h.12c1.44-3.72,5.52-6.24,9.9-6.24,8.7,0,11.34,4.56,11.34,11.94V62.51H437V43.18c0-5.28-1.74-9.36-7.86-9.36s-9.54,4.56-9.72,10.62V62.51h-3.78Z" class="cls-1"></path><path _ngcontent-glv-c4="" d="M448,19.66h3.78v6.06H448Zm0,11.88h3.78v31H448Z" class="cls-1"></path><path _ngcontent-glv-c4="" d="M459,31.54h3.48v5.88h.12c1.74-4.26,6-6.78,11-6.78,9.42,0,13.93,7.56,13.93,16.38s-4.51,16.39-13.93,16.39c-4.56,0-9.12-2.28-10.74-6.78h-.12V74H459Zm14.64,2.28c-8.4,0-10.86,6.18-10.86,13.2,0,6.42,2.88,13.21,10.86,13.21,7.2,0,10.15-6.79,10.15-13.21S480.84,33.82,473.64,33.82Z" class="cls-1"></path><line _ngcontent-glv-c4="" x1="190.71" y1="75.48" x2="190.71" y2="3.49" class="cls-3"></line></svg>
