<?xml version="1.0" encoding="UTF-8"?>
<svg width="230px" height="230px" viewBox="0 0 230 230" version="1.1" xmlns="http://www.w3.org/2000/svg" xmlns:xlink="http://www.w3.org/1999/xlink">
    <title>建设中dataphin</title>
    <defs>
        <linearGradient x1="100%" y1="25.0865052%" x2="-5.43915361%" y2="174.082558%" id="linearGradient-1">
            <stop stop-color="#B7BDE9" offset="0%"></stop>
            <stop stop-color="#8891D9" offset="100%"></stop>
        </linearGradient>
        <linearGradient x1="85.7541436%" y1="21.4205429%" x2="-74.5966504%" y2="150.477022%" id="linearGradient-2">
            <stop stop-color="#8C94EC" offset="0%"></stop>
            <stop stop-color="#0D1677" offset="100%"></stop>
        </linearGradient>
        <linearGradient x1="119.665862%" y1="50%" x2="-4.36114071%" y2="50%" id="linearGradient-3">
            <stop stop-color="#56C6FB" stop-opacity="0" offset="0%"></stop>
            <stop stop-color="#56C6FB" offset="100%"></stop>
        </linearGradient>
        <linearGradient x1="100%" y1="36.9209254%" x2="-5.43915361%" y2="115.140802%" id="linearGradient-4">
            <stop stop-color="#B7BDE9" offset="0%"></stop>
            <stop stop-color="#8891D9" offset="100%"></stop>
        </linearGradient>
        <linearGradient x1="99.1863573%" y1="55.2948252%" x2="-1.46642282%" y2="55.7905008%" id="linearGradient-5">
            <stop stop-color="#6C74CE" offset="0%"></stop>
            <stop stop-color="#4C55B6" offset="100%"></stop>
        </linearGradient>
        <linearGradient x1="85.7541436%" y1="49.7449638%" x2="-74.5966504%" y2="50.8966327%" id="linearGradient-6">
            <stop stop-color="#8C94EC" offset="0%"></stop>
            <stop stop-color="#0D1677" offset="100%"></stop>
        </linearGradient>
    </defs>
    <g id="建设中dataphin" stroke="none" stroke-width="1" fill="none" fill-rule="evenodd">
        <g id="编组-51" transform="translate(35.000000, 43.000000)">
            <rect id="Rectangle" fill="#B6D4FF" transform="translate(75.977740, 44.692737) rotate(-180.000000) translate(-75.977740, -44.692737) " x="70.6146114" y="42.0111732" width="10.726257" height="5.36312849"></rect>
            <path d="M75.8661864,65.2753945 C73.0898115,65.2618732 71.7512021,63.0804358 71.6610601,62.868602 C71.5799322,62.6793037 71.2103499,61.7553477 72.0351496,61.2595665 C72.8193853,60.7727995 73.4548867,61.5390068 73.6081282,61.7463335 C73.7613697,61.9536602 73.6036211,61.7373193 73.6036211,61.7373193 C73.6351708,61.7914045 74.3878569,63.0128292 75.8752006,63.0173363 L75.8887219,63.0173363 C76.600844,63.0173363 77.2904307,62.7153605 77.7366338,62.1294372 C78.1512872,61.5885849 78.2910074,60.885477 78.1242446,60.2815253 C77.6600131,58.5958691 75.8211154,58.4967129 75.803087,58.4967129 C75.1991353,58.4696702 74.7258895,57.973889 74.7258895,57.3699373 L74.7258895,47.3743017 L75.9383,47.3743017 L76.9794406,47.3743017 L76.9794406,56.4324601 C76.9794406,56.4324601 76.9794406,56.4369672 76.9839477,56.4369672 C77.218317,56.5045737 77.4752219,56.5947157 77.7411409,56.7119004 C79.0436934,57.3023308 79.9270854,58.3299501 80.2966678,59.6820807 C80.6527289,60.975619 80.3687815,62.3908491 79.5214463,63.4995963 C78.6560826,64.6444002 77.2949378,65.2753945 75.8887219,65.2753945 L75.8661864,65.2753945 Z" id="路径" fill="#4049A0" fill-rule="nonzero"></path>
            <g id="编组-53" transform="translate(111.731844, 64.357542)" stroke="#CCE3FF" stroke-width="2.23463687">
                <rect id="Rectangle" transform="translate(9.832402, 9.832402) rotate(-180.000000) translate(-9.832402, -9.832402) " x="0" y="0" width="19.6648045" height="19.6648045"></rect>
                <line x1="0.893854749" y1="0.893854749" x2="18.7709497" y2="18.7709497" id="直线-10" stroke-linecap="square"></line>
                <line x1="18.7709497" y1="0.893854749" x2="0.893854749" y2="18.7709497" id="直线-10" stroke-linecap="square"></line>
            </g>
            <g id="编组-53" transform="translate(111.731844, 44.692737)" stroke="#CCE3FF" stroke-width="2.23463687">
                <rect id="Rectangle" transform="translate(9.832402, 9.832402) rotate(-180.000000) translate(-9.832402, -9.832402) " x="0" y="0" width="19.6648045" height="19.6648045"></rect>
                <line x1="0.893854749" y1="0.893854749" x2="18.7709497" y2="18.7709497" id="直线-10" stroke-linecap="square"></line>
                <line x1="18.7709497" y1="0.893854749" x2="0.893854749" y2="18.7709497" id="直线-10" stroke-linecap="square"></line>
            </g>
            <g id="编组-53" transform="translate(85.810056, 21.452514)" stroke="#CCE3FF" stroke-width="2.23463687">
                <rect id="Rectangle" transform="translate(9.832402, 9.832402) rotate(-180.000000) translate(-9.832402, -9.832402) " x="0" y="0" width="19.6648045" height="19.6648045"></rect>
                <line x1="0.893854749" y1="0.893854749" x2="18.7709497" y2="18.7709497" id="直线-10" stroke-linecap="square"></line>
                <line x1="18.7709497" y1="0.893854749" x2="0.893854749" y2="18.7709497" id="直线-10" stroke-linecap="square"></line>
            </g>
            <g id="编组-53" transform="translate(66.145251, 21.452514)">
                <rect id="Rectangle" stroke="#CCE3FF" stroke-width="2.23463687" transform="translate(9.832402, 9.832402) rotate(-180.000000) translate(-9.832402, -9.832402) " x="0" y="0" width="19.6648045" height="19.6648045"></rect>
                <rect id="矩形" fill="#B6D4FF" x="0" y="0" width="19.6648045" height="19.6648045"></rect>
                <line x1="0.893854749" y1="0.893854749" x2="18.7709497" y2="18.7709497" id="直线-10" stroke="#CCE3FF" stroke-width="2.23463687" stroke-linecap="square"></line>
                <line x1="18.7709497" y1="0.893854749" x2="0.893854749" y2="18.7709497" id="直线-10" stroke="#CCE3FF" stroke-width="2.23463687" stroke-linecap="square"></line>
            </g>
            <g id="编组-53" transform="translate(46.480447, 21.452514)" stroke="#CCE3FF" stroke-width="2.23463687">
                <rect id="Rectangle" transform="translate(9.832402, 9.832402) rotate(-180.000000) translate(-9.832402, -9.832402) " x="0" y="0" width="19.6648045" height="19.6648045"></rect>
                <line x1="0.893854749" y1="0.893854749" x2="18.7709497" y2="18.7709497" id="直线-10" stroke-linecap="square"></line>
                <line x1="18.7709497" y1="0.893854749" x2="0.893854749" y2="18.7709497" id="直线-10" stroke-linecap="square"></line>
            </g>
            <g id="编组-53" transform="translate(137.653631, 21.452514)" stroke="#CCE3FF" stroke-width="2.23463687">
                <rect id="Rectangle" transform="translate(9.832402, 9.832402) rotate(-180.000000) translate(-9.832402, -9.832402) " x="0" y="0" width="19.6648045" height="19.6648045"></rect>
                <line x1="0.893854749" y1="0.893854749" x2="18.7709497" y2="18.7709497" id="直线-10" stroke-linecap="square"></line>
                <line x1="18.7709497" y1="0.893854749" x2="0.893854749" y2="18.7709497" id="直线-10" stroke-linecap="square"></line>
            </g>
            <g id="编组-53" transform="translate(36.648045, 21.452514)" stroke="#CCE3FF" stroke-width="2.23463687">
                <rect id="Rectangle" transform="translate(4.916201, 9.832402) rotate(-180.000000) translate(-4.916201, -9.832402) " x="0" y="0" width="9.83240223" height="19.6648045"></rect>
                <line x1="0.893854749" y1="0.893854749" x2="9.83240223" y2="18.7709497" id="直线-10" stroke-linecap="square"></line>
                <line x1="9.83240223" y1="0.893854749" x2="0.893854749" y2="18.7709497" id="直线-10" stroke-linecap="square"></line>
            </g>
            <rect id="Rectangle" fill="#B6D4FF" transform="translate(121.564246, 45.139665) rotate(-180.000000) translate(-121.564246, -45.139665) " x="110.837989" y="41.1173184" width="21.452514" height="8.04469274"></rect>
            <line x1="121.117318" y1="21.0055866" x2="35.9354737" y2="0" id="Path" stroke="#CCE3FF" stroke-width="2.32402235" transform="translate(78.840502, 10.726257) scale(1, -1) translate(-78.840502, -10.726257) "></line>
            <line x1="121.26616" y1="21.9430129" x2="107.26257" y2="0.490498938" id="Path" stroke="#B6D4FF" stroke-width="2.32402235" stroke-linecap="round" transform="translate(114.264365, 11.216756) scale(1, -1) translate(-114.264365, -11.216756) "></line>
            <line x1="121.117318" y1="21.8994413" x2="157.765363" y2="0.446927374" id="Path" stroke="#CCE3FF" stroke-width="2.32402235" transform="translate(139.622625, 11.173184) scale(1, -1) translate(-139.622625, -11.173184) "></line>
            <line x1="121.26616" y1="21.9430129" x2="135.269749" y2="0.490498938" id="Path" stroke="#B6D4FF" stroke-width="2.32402235" stroke-linecap="round" transform="translate(128.267954, 11.216756) scale(1, -1) translate(-128.267954, -11.216756) "></line>
            <line x1="121.26616" y1="20.7498942" x2="121.117318" y2="0.522826227" id="Path" stroke="#B6D4FF" stroke-width="2.32402235" stroke-linecap="round" transform="translate(121.266160, 10.769829) scale(1, -1) translate(-121.266160, -10.769829) "></line>
            <polygon id="Rectangle" fill="url(#linearGradient-1)" transform="translate(121.564246, 31.284916) rotate(-180.000000) translate(-121.564246, -31.284916) " points="106.368715 20.5586592 136.759777 20.5586592 136.759777 42.0111732 115.896011 42.0111732 106.368715 42.0111732"></polygon>
            <rect id="Rectangle" fill="url(#linearGradient-2)" transform="translate(118.882682, 31.284916) rotate(-180.000000) translate(-118.882682, -31.284916) " x="110.837989" y="24.1340782" width="16.0893855" height="14.301676"></rect>
            <path d="M160,120.670391 L160,127.821229 L152.742433,127.821229 L152.742433,120.670391 L160,120.670391 Z M149.11365,120.670391 L149.11365,127.821229 L99.2178771,127.821229 L99.2178771,120.670391 L149.11365,120.670391 Z" id="形状结合" fill="url(#linearGradient-3)" opacity="0.600000024"></path>
            <rect id="矩形备份-3" stroke="#CCE3FF" stroke-width="1.7877095" x="0.893854749" y="107.26257" width="25.027933" height="7.15083799"></rect>
            <g id="编组-54" transform="translate(15.195531, 73.296089)">
                <rect id="矩形" fill="url(#linearGradient-4)" x="0" y="9.83240223" width="117.094972" height="59.8882682"></rect>
                <polygon id="矩形" fill="url(#linearGradient-5)" opacity="0.600000024" points="28.3066382 16.1969209 97.4301676 23.1102195 95.0453171 45.6941276 25.9217877 38.780829"></polygon>
                <polygon id="矩形" fill="#FFFFFF" points="26.4034704 13.5153566 95.6424581 20.4860079 93.3730659 42.1187086 24.1340782 35.1480573"></polygon>
                <line x1="14.301676" y1="61.3365857" x2="108.156425" y2="61.3365857" id="直线" stroke="#FFFFFF" stroke-width="1.87492492"></line>
                <line x1="14.301676" y1="51.5041835" x2="108.156425" y2="51.5041835" id="直线备份" stroke="#FFFFFF" stroke-width="1.87492492"></line>
                <rect id="矩形" fill="url(#linearGradient-6)" transform="translate(58.547486, 4.916201) scale(1, -1) translate(-58.547486, -4.916201) " x="0" y="0" width="117.094972" height="9.83240223"></rect>
            </g>
            <polyline id="路径-4" stroke="#516ACA" stroke-width="2.68156425" stroke-linejoin="bevel" points="58.2532693 92.1867291 75.9084673 61.6759777 95.6424581 97.454448"></polyline>
            <path d="M75.9363112,65.2753945 C76.1444285,64.7947396 76.4204515,64.4088048 76.4791532,63.9343348 C76.5259897,63.5557689 76.5259897,63.2747603 76.4061748,62.8116963 C77.3990449,62.7124474 77.5248424,62.353672 77.9566283,61.8302007 C78.5236388,62.810322 78.7575653,62.7813197 79.3161371,63.6843582 C78.9914997,64.2841764 77.8123907,65.2163597 76.4061748,65.2163597 L75.9363112,65.2753945 Z" id="路径" fill="#4049A0" fill-rule="nonzero"></path>
        </g>
    </g>
</svg>