<?xml version="1.0" encoding="UTF-8"?>
<svg width="230px" height="230px" viewBox="0 0 230 230" version="1.1" xmlns="http://www.w3.org/2000/svg" xmlns:xlink="http://www.w3.org/1999/xlink">
    <title>未配置内容</title>
    <defs>
        <linearGradient x1="69.4035861%" y1="28.8475757%" x2="12.3353507%" y2="100%" id="linearGradient-1">
            <stop stop-color="#B7BDE9" offset="0%"></stop>
            <stop stop-color="#8891D9" offset="100%"></stop>
        </linearGradient>
        <linearGradient x1="100%" y1="42%" x2="-5.64856488%" y2="58.7873817%" id="linearGradient-2">
            <stop stop-color="#7983D6" offset="0%"></stop>
            <stop stop-color="#242C83" offset="100%"></stop>
        </linearGradient>
    </defs>
    <g id="未配置内容" stroke="none" stroke-width="1" fill="none" fill-rule="evenodd">
        <g id="编组-2备份-2" transform="translate(5.000000, 62.000000)">
            <rect id="矩形" stroke="#A8AFD1" stroke-width="2" opacity="0.5" x="1" y="39" width="28" height="28"></rect>
            <g id="编组-3" transform="translate(60.000000, 0.000000)">
                <polygon id="矩形" fill="url(#linearGradient-1)" points="0 0 74 0 92 16 92 106 0 106"></polygon>
                <polygon id="路径-4" fill="#666DA5" points="74 16 92 22.9992339 92 16"></polygon>
                <polygon id="路径-3" fill="#E4E7FF" points="74 0 92 16 74 16"></polygon>
                <line x1="14" y1="82" x2="78" y2="82" id="直线备份" stroke="#FFFFFF" stroke-width="2" stroke-linecap="square"></line>
                <line x1="14" y1="70" x2="78" y2="70" id="直线" stroke="#FFFFFF" stroke-width="2" stroke-linecap="square"></line>
                <line x1="14" y1="58" x2="78" y2="58" id="直线" stroke="#FFFFFF" stroke-width="2" stroke-linecap="square"></line>
                <rect id="矩形" stroke="#FFFFFF" stroke-width="2" x="14" y="35" width="44" height="8"></rect>
                <line x1="14" y1="26" x2="58" y2="26" id="直线" stroke="#FFFFFF" stroke-width="2" stroke-linecap="square"></line>
            </g>
            <g id="编组" transform="translate(12.000000, 50.000000)">
                <rect id="矩形" fill="url(#linearGradient-2)" x="0" y="8" width="70" height="28"></rect>
                <rect id="矩形" stroke="#FFFFFF" stroke-width="2" x="7" y="17" width="27" height="10"></rect>
                <rect id="矩形" fill="#B7BCE9" transform="translate(35.000000, 4.000000) scale(1, -1) translate(-35.000000, -4.000000) " x="0" y="0" width="70" height="8"></rect>
                <line x1="43" y1="19" x2="63" y2="19" id="直线备份-2" stroke="#FFFFFF" stroke-width="2" stroke-linecap="square"></line>
                <line x1="43" y1="25" x2="63" y2="25" id="直线备份-2" stroke="#FFFFFF" stroke-width="2" stroke-linecap="square"></line>
            </g>
            <path d="M187,88 L187,96 L179,96 L179,88 L187,88 Z M175,88 L175,96 L120,96 L120,88 L175,88 Z" id="形状结合" fill="#56C6FB"></path>
            <polygon id="路径-7" fill="#A8AFD1" fill-rule="nonzero" opacity="0.5" points="220 45 220 47 164 47 164 77 162 77 162 45"></polygon>
            <polygon id="直线-2" fill="#A8AFD1" fill-rule="nonzero" opacity="0.5" points="220 35 220 37 162 37 162 35"></polygon>
            <polygon id="直线-2备份" fill="#A8AFD1" fill-rule="nonzero" opacity="0.5" points="192 25 192 27 162 27 162 25"></polygon>
        </g>
    </g>
</svg>