<svg width="50" height="50" viewBox="0 0 50 50" fill="none" xmlns="http://www.w3.org/2000/svg">
<g clip-path="url(#clip0)">
<path d="M48.0652 22.885L27.1199 1.94233C25.9148 0.736101 23.9586 0.736101 22.7519 1.94233L18.4029 6.29181L23.9195 11.8084C25.202 11.3754 26.672 11.6658 27.6938 12.6878C28.7209 13.7161 29.0092 15.1987 28.5653 16.4854L33.8824 21.8025C35.1687 21.3592 36.6529 21.6456 37.68 22.6746C39.1161 24.1102 39.1161 26.4365 37.68 27.8725C36.2438 29.3089 33.9175 29.3089 32.4805 27.8725C31.4007 26.7918 31.1336 25.2053 31.6805 23.8749L26.7218 18.9162L26.7213 31.965C27.0714 32.1383 27.4018 32.3697 27.6936 32.6601C29.1292 34.0956 29.1292 36.4214 27.6936 37.8593C26.2575 39.2947 23.9302 39.2947 22.4957 37.8593C21.0599 36.4216 21.0599 34.0957 22.4957 32.6601C22.8505 32.3059 23.2611 32.0378 23.6992 31.8581V18.688C23.2609 18.5091 22.8508 18.243 22.4954 17.8859C21.4079 16.7992 21.1459 15.203 21.7037 13.8674L16.2654 8.42827L1.90496 22.7883C0.698347 23.9954 0.698347 25.9516 1.90496 27.158L22.849 48.1007C24.0548 49.3069 26.0103 49.3069 27.2178 48.1007L48.065 27.2569C49.2712 26.0501 49.2712 24.0933 48.065 22.8868" fill="#F05133"/>
</g>
<defs>
<clipPath id="clip0">
<rect width="50" height="50" fill="white"/>
</clipPath>
</defs>
</svg>
