<svg version="1.0" xmlns="http://www.w3.org/2000/svg" width="681.333" height="681.333" viewBox="0 0 511 511"><path d="M284 188.9V314h5.3c2.8 0 23.9.9 46.7 2 22.8 1.1 42.4 2 43.6 2 2.4 0 2.3 1.2.3-22-7.2-83.5-39-162.9-90.3-225.4l-5.6-6.9v125.2zM262.3 125.3c-36.1 37.6-65.1 90.2-78.4 142.5-3.7 14.5-8.6 39.9-7.8 40.6.6.5 94.1 4.7 94.6 4.3.1-.2.2-44.4.1-98.2l-.3-97.7-8.2 8.5zM91.6 320.1c3.6 8.5 9.3 22.1 12.7 30.3 5.2 12.5 7.1 15.9 11.4 20.6 12.3 13.3 30.9 17.5 47.3 10.6 12.5-5.3 14.3-5.8 21-5.4 4.7.3 8.4 1.3 13.3 3.6 14 6.7 25.2 6.8 38.9.6 6.2-2.8 10-3.9 14.8-4.2 6.7-.4 8.4 0 21 5.4 11.8 4.9 24.6 4.2 37.2-2.2 8.1-4.1 17.5-4.5 25.9-.9 11.8 5 14.4 5.7 20.9 6.2 7.8.6 17.3-1.5 24-5.4 7.7-4.6 13.2-11.2 19.8-24.1l6.2-12-6.3-.6c-3.4-.3-13.2-.8-21.7-1.1-8.5-.3-19.3-.8-24-1-4.7-.3-14.1-.7-21-1-12-.5-20.8-.9-42.5-2-5.5-.3-25.1-1.2-43.5-2-58.9-2.6-57.3-2.5-60-4.4-1.5-1.1-4.1-5.5-6.6-11.5-2.3-5.3-4.3-9.8-4.5-10-.8-.7-11.4-1.5-28.4-2.1-9.3-.4-19-.8-21.5-1-2.5-.2-12.7-.7-22.7-1.1l-18.3-.7 6.6 15.4zM135.4 403.8c2.5 4.9 13.2 14.1 20.1 17.4 13.6 6.3 28.3 6.1 42.5-.8 9.9-4.7 16.8-4.7 27.1 0 15 6.9 26.9 7.2 41.8 1.1 11.3-4.6 17.5-4.7 27.4-.4 19.9 8.8 39.9 5.1 54.9-10.1 3.7-3.9 6.8-7.7 6.8-8.5 0-1.3-12.5-1.5-111-1.5H134l1.4 2.8z"/></svg>